<?xml version="1.0" encoding="utf-8"?>
<!-- Generator: Adobe Illustrator 16.0.0, SVG Export Plug-In . SVG Version: 6.00 Build 0)  -->
<!DOCTYPE svg PUBLIC "-//W3C//DTD SVG 1.1//EN" "http://www.w3.org/Graphics/SVG/1.1/DTD/svg11.dtd">
<svg version="1.1" id="Layer_1" xmlns="http://www.w3.org/2000/svg" xmlns:xlink="http://www.w3.org/1999/xlink" x="0px" y="0px"
	 width="197.669px" height="197.652px" viewBox="0 0 197.669 197.652" enable-background="new 0 0 197.669 197.652"
	 xml:space="preserve">
<g>
	<g>
		<path fill="#8CC63F" d="M105.92,62.096h42.698c0.07,0,0.141,0.012,0.211,0.023c6.143,0.117,11.129,5.139,11.129,11.329v23.79
			h37.711V38.026C197.669,17.028,180.642,0,159.621,0h-53.7V62.096z"/>
		<path fill="#8CC63F" d="M37.705,97.238V79.346v-5.897V62.096c0-6.073,4.929-10.978,10.979-10.978h19.69
			c6.073,0,10.978,4.905,10.978,10.978h12.181h0.216V0H38.043C17.028,0,0,17.028,0,38.026v59.211H37.705z"/>
		<path fill="#8CC63F" d="M159.958,111.393v23.802c0,6.248-5.104,11.34-11.34,11.34H105.92v51.118h53.7
			c21.021,0,38.049-17.016,38.049-38.026v-48.233H159.958z"/>
		<path fill="#8CC63F" d="M91.743,146.534H49.057c-6.248,0-11.352-5.092-11.352-11.34v-3.048v-20.754H0v48.233
			c0,21.011,17.028,38.026,38.043,38.026h53.7V146.534z"/>
	</g>
</g>
</svg>
